<?xml version="1.0" encoding="utf-8"?>
<!-- Generator: Adobe Illustrator 19.1.0, SVG Export Plug-In . SVG Version: 6.00 Build 0)  -->
<svg version="1.1" id="Layer_3" xmlns="http://www.w3.org/2000/svg" xmlns:xlink="http://www.w3.org/1999/xlink" x="0px" y="0px"
	 viewBox="0 0 1800 1200" style="enable-background:new 0 0 1800 1200;" xml:space="preserve">
<path class="st0" d="M900,600"/>
<path d="M900,619.2c23.8,0,43.1-19.3,43.1-43.1c0-8.5-2.5-16.4-6.8-23.1h6.8v-20H900c-23.8,0-43.1,19.3-43.1,43.1
	S876.2,619.2,900,619.2z M900,553c12.7,0,23.1,10.4,23.1,23.1c0,12.7-10.4,23.1-23.1,23.1s-23.1-10.4-23.1-23.1
	C876.9,563.4,887.3,553,900,553z M923,625c-0.6,12.2-10.7,22-23,22c-12.4,0-22.5-9.8-23-22h-20c0.6,23.3,19.6,42,43,42
	s42.5-18.7,43-42H923z"/>
</svg>
